<svg xmlns="http://www.w3.org/2000/svg" width="241" height="87" fill="none" viewBox="0 0 241 87"><mask id="path-1-outside-1_4449_13746" width="241" height="87" x="0" y="0" fill="#000" maskUnits="userSpaceOnUse"><rect width="241" height="87" fill="#fff"/><path d="M1 33.024c0-8.837 7.163-16 16-16h207c8.837 0 16 7.163 16 16v36c0 8.836-7.163 16-16 16H17c-8.837 0-16-7.164-16-16z"/><path d="M117.723 2.707c1.592-2.276 4.962-2.276 6.554 0l9.639 13.773c1.856 2.651-.041 6.294-3.277 6.294h-19.278c-3.236 0-5.133-3.643-3.277-6.294z"/><path d="M37.81 40.634q1.65.21 3.69.3 2.07.09 4.35.09 1.47 0 2.97-.06t2.88-.15q1.41-.12 2.52-.21v3.12q-1.02.09-2.46.18-1.41.09-2.94.15-1.53.03-2.94.03-2.31 0-4.29-.09-1.98-.12-3.78-.24zm1.8 12.36q-.27.84-.42 1.65t-.15 1.59q0 1.59 1.62 2.61 1.65 1.02 5.07 1.02 2.07 0 3.96-.15 1.92-.15 3.57-.42t2.85-.63l.03 3.3q-1.17.3-2.79.54-1.59.24-3.51.36-1.89.15-3.99.15-3.21 0-5.43-.72-2.22-.69-3.36-2.04t-1.14-3.3q0-1.23.21-2.28.21-1.08.39-1.95z"/><path d="M77.8 39.734q-.21.3-.45.69-.24.36-.51.78-.51.78-1.2 1.95-.69 1.14-1.44 2.46t-1.47 2.61-1.26 2.34q.96-.75 1.98-1.08 1.05-.36 2.01-.36 1.59 0 2.55.99.99.96 1.08 2.79.03.78.03 1.77v1.89q.03.93.09 1.62.06 1.05.69 1.5.66.42 1.5.42 1.14 0 2.04-.63.93-.63 1.62-1.68.72-1.08 1.2-2.34.51-1.29.81-2.58l2.52 2.07q-.78 2.49-1.95 4.38-1.17 1.86-2.82 2.91-1.65 1.08-3.9 1.08-1.62 0-2.64-.6-.99-.6-1.47-1.5-.45-.9-.51-1.86-.06-.87-.09-1.86 0-1.02-.03-1.98 0-.99-.06-1.71-.03-.9-.54-1.38-.51-.51-1.44-.51-1.11 0-2.16.66-1.02.66-1.86 1.74-.81 1.08-1.38 2.28-.33.66-.69 1.59-.36.9-.72 1.89-.33.96-.6 1.83t-.45 1.44l-3.3-1.11q.57-1.53 1.41-3.45.84-1.95 1.86-4.08 1.02-2.16 2.07-4.26t2.01-3.99 1.71-3.3 1.14-2.13q.3-.54.63-1.17.33-.66.63-1.47z"/><path d="M104.56 41.444q1.32.21 2.97.3 1.68.09 3.45.06t3.39-.12 2.79-.24v3.06q-1.29.12-2.91.21-1.62.06-3.36.06-1.71 0-3.36-.06-1.65-.09-2.94-.21zm1.71 12.48q-.18.78-.3 1.41-.09.63-.09 1.26 0 .51.21.96.24.45.75.78.54.33 1.44.54.93.18 2.28.18 2.04 0 3.81-.18 1.8-.21 3.66-.63l.06 3.21q-1.41.27-3.3.45-1.86.15-4.29.15-3.81 0-5.64-1.23-1.8-1.26-1.8-3.45 0-.81.12-1.68.12-.9.39-2.01zm-6.93-14.64-.24.72q-.12.42-.24.87l-.15.69q-.15.75-.36 1.83-.18 1.05-.39 2.31-.18 1.23-.36 2.52-.15 1.26-.27 2.46-.09 1.2-.09 2.19 0 .78.03 1.59.06.78.15 1.62.27-.6.54-1.26.27-.69.54-1.35t.51-1.2l1.5 1.2q-.39 1.11-.84 2.46t-.81 2.58q-.33 1.2-.48 1.95-.06.3-.12.72-.06.39-.03.66v.51q.03.33.06.6l-2.73.18q-.45-1.56-.78-4.11t-.33-5.58q0-1.68.15-3.39.15-1.74.36-3.36t.42-2.97q.24-1.35.36-2.25.09-.57.15-1.23.09-.66.12-1.26z"/><path d="M134.08 38.354q-.21.66-.36 1.38-.12.72-.27 1.38-.12.72-.33 1.74-.21.99-.48 2.16-.24 1.14-.51 2.31t-.57 2.25q-.3 1.05-.6 1.89 1.92-1.2 3.87-1.71 1.95-.54 4.14-.54 2.43 0 4.14.78 1.74.75 2.7 2.13t.96 3.24q0 2.4-1.17 4.08-1.14 1.68-3.24 2.61-2.1.96-5.01 1.23-2.88.27-6.42-.09l-.81-3.03q2.55.36 4.95.33 2.43-.03 4.35-.54 1.92-.54 3.06-1.65t1.14-2.88q0-1.53-1.29-2.58-1.26-1.08-3.69-1.08-2.64 0-4.92.9t-3.72 2.67q-.24.33-.45.66-.21.3-.42.69l-2.82-.99q.87-1.68 1.59-3.75t1.26-4.17q.57-2.13.93-3.93t.48-2.94q.12-.81.15-1.41.06-.63 0-1.29zm-9.81 3.69q1.29.21 2.91.36t3 .15q1.44 0 3.18-.09a87 87 0 0 0 7.53-.72q1.95-.3 3.75-.69l.06 2.88q-1.53.24-3.39.48t-3.81.45q-1.95.18-3.84.3a73 73 0 0 1-6.57.03q-1.5-.09-2.82-.21z"/><path d="M162.85 43.994q1.29.12 2.55.21 1.29.06 2.64.06 2.7 0 5.4-.24t5.01-.69v2.91q-2.4.39-5.1.57-2.67.18-5.34.21-1.32 0-2.58-.06-1.23-.06-2.55-.15zm10.89-5.25q-.06.45-.12.93l-.06.93q-.03.51-.06 1.35 0 .84-.03 1.83v1.92q0 1.89.06 3.63.09 1.74.18 3.3t.15 2.94q.06 1.35.06 2.46 0 1.02-.27 1.95t-.9 1.65-1.71 1.11q-1.05.42-2.61.42-3.06 0-4.74-1.2t-1.68-3.36q0-1.38.75-2.46.78-1.08 2.19-1.71 1.44-.63 3.45-.63t3.66.45q1.65.42 3.06 1.17 1.41.72 2.52 1.59 1.14.87 2.07 1.68l-1.62 2.52a27.6 27.6 0 0 0-3.24-2.7q-1.59-1.14-3.24-1.77a9.6 9.6 0 0 0-3.45-.63q-1.53 0-2.49.6-.93.6-.93 1.56 0 1.05.93 1.59.93.51 2.37.51 1.11 0 1.74-.36t.9-1.05.27-1.62q0-.78-.06-2.1-.06-1.35-.15-2.94-.09-1.62-.15-3.3-.06-1.71-.06-3.27v-5.07q0-.39-.06-.93-.03-.57-.12-.99zm-14.73.27q-.09.24-.21.69l-.24.9q-.09.45-.15.72-.15.72-.36 1.86-.18 1.11-.39 2.46-.18 1.32-.36 2.7-.15 1.38-.27 2.64-.09 1.26-.09 2.22 0 .78.06 1.59.06.78.18 1.62.21-.63.48-1.29.27-.69.54-1.35.3-.66.54-1.2l1.5 1.17-.84 2.46q-.45 1.29-.81 2.46-.33 1.17-.51 1.95-.06.3-.12.72-.03.39-.03.66.03.21.03.51.03.33.06.6l-2.67.21q-.48-1.59-.84-4.02-.33-2.46-.33-5.52 0-1.68.15-3.48.15-1.83.36-3.57.24-1.74.45-3.18t.36-2.34q.06-.57.12-1.23.09-.66.12-1.26z"/><path d="m194.77 54.584-.69-11.04-.09-3.96h4.02l-.09 3.96-.69 11.04zm1.23 7.65q-.96 0-1.62-.63-.63-.63-.63-1.65t.66-1.65 1.59-.63 1.59.63.66 1.65-.66 1.65-1.59.63"/></mask><path fill="#fff" d="M1 33.024c0-8.837 7.163-16 16-16h207c8.837 0 16 7.163 16 16v36c0 8.836-7.163 16-16 16H17c-8.837 0-16-7.164-16-16z"/><path fill="#fff" d="M117.723 2.707c1.592-2.276 4.962-2.276 6.554 0l9.639 13.773c1.856 2.651-.041 6.294-3.277 6.294h-19.278c-3.236 0-5.133-3.643-3.277-6.294z"/><path fill="#8b7878" d="M37.81 40.634q1.65.21 3.69.3 2.07.09 4.35.09 1.47 0 2.97-.06t2.88-.15q1.41-.12 2.52-.21v3.12q-1.02.09-2.46.18-1.41.09-2.94.15-1.53.03-2.94.03-2.31 0-4.29-.09-1.98-.12-3.78-.24zm1.8 12.36q-.27.84-.42 1.65t-.15 1.59q0 1.59 1.62 2.61 1.65 1.02 5.07 1.02 2.07 0 3.96-.15 1.92-.15 3.57-.42t2.85-.63l.03 3.3q-1.17.3-2.79.54-1.59.24-3.51.36-1.89.15-3.99.15-3.21 0-5.43-.72-2.22-.69-3.36-2.04t-1.14-3.3q0-1.23.21-2.28.21-1.08.39-1.95z"/><path fill="#8b7878" d="M77.8 39.734q-.21.3-.45.69-.24.36-.51.78-.51.78-1.2 1.95-.69 1.14-1.44 2.46t-1.47 2.61-1.26 2.34q.96-.75 1.98-1.08 1.05-.36 2.01-.36 1.59 0 2.55.99.99.96 1.08 2.79.03.78.03 1.77v1.89q.03.93.09 1.62.06 1.05.69 1.5.66.42 1.5.42 1.14 0 2.04-.63.93-.63 1.62-1.68.72-1.08 1.2-2.34.51-1.29.81-2.58l2.52 2.07q-.78 2.49-1.95 4.38-1.17 1.86-2.82 2.91-1.65 1.08-3.9 1.08-1.62 0-2.64-.6-.99-.6-1.47-1.5-.45-.9-.51-1.86-.06-.87-.09-1.86 0-1.02-.03-1.98 0-.99-.06-1.71-.03-.9-.54-1.38-.51-.51-1.44-.51-1.11 0-2.16.66-1.02.66-1.86 1.74-.81 1.08-1.38 2.28-.33.66-.69 1.59-.36.9-.72 1.89-.33.96-.6 1.83t-.45 1.44l-3.3-1.11q.57-1.53 1.41-3.45.84-1.95 1.86-4.08 1.02-2.16 2.07-4.26t2.01-3.99 1.71-3.3 1.14-2.13q.3-.54.63-1.17.33-.66.63-1.47z"/><path fill="#8b7878" d="M104.56 41.444q1.32.21 2.97.3 1.68.09 3.45.06t3.39-.12 2.79-.24v3.06q-1.29.12-2.91.21-1.62.06-3.36.06-1.71 0-3.36-.06-1.65-.09-2.94-.21zm1.71 12.48q-.18.78-.3 1.41-.09.63-.09 1.26 0 .51.21.96.24.45.75.78.54.33 1.44.54.93.18 2.28.18 2.04 0 3.81-.18 1.8-.21 3.66-.63l.06 3.21q-1.41.27-3.3.45-1.86.15-4.29.15-3.81 0-5.64-1.23-1.8-1.26-1.8-3.45 0-.81.12-1.68.12-.9.39-2.01zm-6.93-14.64-.24.72q-.12.42-.24.87l-.15.69q-.15.75-.36 1.83-.18 1.05-.39 2.31-.18 1.23-.36 2.52-.15 1.26-.27 2.46-.09 1.2-.09 2.19 0 .78.03 1.59.06.78.15 1.62.27-.6.54-1.26.27-.69.54-1.35t.51-1.2l1.5 1.2q-.39 1.11-.84 2.46t-.81 2.58q-.33 1.2-.48 1.95-.06.3-.12.72-.06.39-.03.66v.51q.03.33.06.6l-2.73.18q-.45-1.56-.78-4.11t-.33-5.58q0-1.68.15-3.39.15-1.74.36-3.36t.42-2.97q.24-1.35.36-2.25.09-.57.15-1.23.09-.66.12-1.26z"/><path fill="#8b7878" d="M134.08 38.354q-.21.66-.36 1.38-.12.72-.27 1.38-.12.72-.33 1.74-.21.99-.48 2.16-.24 1.14-.51 2.31t-.57 2.25q-.3 1.05-.6 1.89 1.92-1.2 3.87-1.71 1.95-.54 4.14-.54 2.43 0 4.14.78 1.74.75 2.7 2.13t.96 3.24q0 2.4-1.17 4.08-1.14 1.68-3.24 2.61-2.1.96-5.01 1.23-2.88.27-6.42-.09l-.81-3.03q2.55.36 4.95.33 2.43-.03 4.35-.54 1.92-.54 3.06-1.65t1.14-2.88q0-1.53-1.29-2.58-1.26-1.08-3.69-1.08-2.64 0-4.92.9t-3.72 2.67q-.24.33-.45.66-.21.3-.42.69l-2.82-.99q.87-1.68 1.59-3.75t1.26-4.17q.57-2.13.93-3.93t.48-2.94q.12-.81.15-1.41.06-.63 0-1.29zm-9.81 3.69q1.29.21 2.91.36t3 .15q1.44 0 3.18-.09a87 87 0 0 0 7.53-.72q1.95-.3 3.75-.69l.06 2.88q-1.53.24-3.39.48t-3.81.45q-1.95.18-3.84.3a73 73 0 0 1-6.57.03q-1.5-.09-2.82-.21z"/><path fill="#8b7878" d="M162.85 43.994q1.29.12 2.55.21 1.29.06 2.64.06 2.7 0 5.4-.24t5.01-.69v2.91q-2.4.39-5.1.57-2.67.18-5.34.21-1.32 0-2.58-.06-1.23-.06-2.55-.15zm10.89-5.25q-.06.45-.12.93l-.06.93q-.03.51-.06 1.35 0 .84-.03 1.83v1.92q0 1.89.06 3.63.09 1.74.18 3.3t.15 2.94q.06 1.35.06 2.46 0 1.02-.27 1.95t-.9 1.65-1.71 1.11q-1.05.42-2.61.42-3.06 0-4.74-1.2t-1.68-3.36q0-1.38.75-2.46.78-1.08 2.19-1.71 1.44-.63 3.45-.63t3.66.45q1.65.42 3.06 1.17 1.41.72 2.52 1.59 1.14.87 2.07 1.68l-1.62 2.52a27.6 27.6 0 0 0-3.24-2.7q-1.59-1.14-3.24-1.77a9.6 9.6 0 0 0-3.45-.63q-1.53 0-2.49.6-.93.6-.93 1.56 0 1.05.93 1.59.93.51 2.37.51 1.11 0 1.74-.36t.9-1.05.27-1.62q0-.78-.06-2.1-.06-1.35-.15-2.94-.09-1.62-.15-3.3-.06-1.71-.06-3.27v-5.07q0-.39-.06-.93-.03-.57-.12-.99zm-14.73.27q-.09.24-.21.69l-.24.9q-.09.45-.15.72-.15.72-.36 1.86-.18 1.11-.39 2.46-.18 1.32-.36 2.7-.15 1.38-.27 2.64-.09 1.26-.09 2.22 0 .78.06 1.59.06.78.18 1.62.21-.63.48-1.29.27-.69.54-1.35.3-.66.54-1.2l1.5 1.17-.84 2.46q-.45 1.29-.81 2.46-.33 1.17-.51 1.95-.06.3-.12.72-.03.39-.03.66.03.21.03.51.03.33.06.6l-2.67.21q-.48-1.59-.84-4.02-.33-2.46-.33-5.52 0-1.68.15-3.48.15-1.83.36-3.57.24-1.74.45-3.18t.36-2.34q.06-.57.12-1.23.09-.66.12-1.26z"/><path fill="#8b7878" d="m194.77 54.584-.69-11.04-.09-3.96h4.02l-.09 3.96-.69 11.04zm1.23 7.65q-.96 0-1.62-.63-.63-.63-.63-1.65t.66-1.65 1.59-.63 1.59.63.66 1.65-.66 1.65-1.59.63"/><path stroke="#8b7878" stroke-width="2" d="M1 33.024c0-8.837 7.163-16 16-16h207c8.837 0 16 7.163 16 16v36c0 8.836-7.163 16-16 16H17c-8.837 0-16-7.164-16-16z" mask="url(#path-1-outside-1_4449_13746)"/><path stroke="#8b7878" stroke-width="2" d="M117.723 2.707c1.592-2.276 4.962-2.276 6.554 0l9.639 13.773c1.856 2.651-.041 6.294-3.277 6.294h-19.278c-3.236 0-5.133-3.643-3.277-6.294z" mask="url(#path-1-outside-1_4449_13746)"/><path stroke="#8b7878" stroke-width="2" d="M37.81 40.634q1.65.21 3.69.3 2.07.09 4.35.09 1.47 0 2.97-.06t2.88-.15q1.41-.12 2.52-.21v3.12q-1.02.09-2.46.18-1.41.09-2.94.15-1.53.03-2.94.03-2.31 0-4.29-.09-1.98-.12-3.78-.24zm1.8 12.36q-.27.84-.42 1.65t-.15 1.59q0 1.59 1.62 2.61 1.65 1.02 5.07 1.02 2.07 0 3.96-.15 1.92-.15 3.57-.42t2.85-.63l.03 3.3q-1.17.3-2.79.54-1.59.24-3.51.36-1.89.15-3.99.15-3.21 0-5.43-.72-2.22-.69-3.36-2.04t-1.14-3.3q0-1.23.21-2.28.21-1.08.39-1.95z" mask="url(#path-1-outside-1_4449_13746)"/><path stroke="#8b7878" stroke-width="2" d="M77.8 39.734q-.21.3-.45.69-.24.36-.51.78-.51.78-1.2 1.95-.69 1.14-1.44 2.46t-1.47 2.61-1.26 2.34q.96-.75 1.98-1.08 1.05-.36 2.01-.36 1.59 0 2.55.99.99.96 1.08 2.79.03.78.03 1.77v1.89q.03.93.09 1.62.06 1.05.69 1.5.66.42 1.5.42 1.14 0 2.04-.63.93-.63 1.62-1.68.72-1.08 1.2-2.34.51-1.29.81-2.58l2.52 2.07q-.78 2.49-1.95 4.38-1.17 1.86-2.82 2.91-1.65 1.08-3.9 1.08-1.62 0-2.64-.6-.99-.6-1.47-1.5-.45-.9-.51-1.86-.06-.87-.09-1.86 0-1.02-.03-1.98 0-.99-.06-1.71-.03-.9-.54-1.38-.51-.51-1.44-.51-1.11 0-2.16.66-1.02.66-1.86 1.74-.81 1.08-1.38 2.28-.33.66-.69 1.59-.36.9-.72 1.89-.33.96-.6 1.83t-.45 1.44l-3.3-1.11q.57-1.53 1.41-3.45.84-1.95 1.86-4.08 1.02-2.16 2.07-4.26t2.01-3.99 1.71-3.3 1.14-2.13q.3-.54.63-1.17.33-.66.63-1.47z" mask="url(#path-1-outside-1_4449_13746)"/><path stroke="#8b7878" stroke-width="2" d="M104.56 41.444q1.32.21 2.97.3 1.68.09 3.45.06t3.39-.12 2.79-.24v3.06q-1.29.12-2.91.21-1.62.06-3.36.06-1.71 0-3.36-.06-1.65-.09-2.94-.21zm1.71 12.48q-.18.78-.3 1.41-.09.63-.09 1.26 0 .51.21.96.24.45.75.78.54.33 1.44.54.93.18 2.28.18 2.04 0 3.81-.18 1.8-.21 3.66-.63l.06 3.21q-1.41.27-3.3.45-1.86.15-4.29.15-3.81 0-5.64-1.23-1.8-1.26-1.8-3.45 0-.81.12-1.68.12-.9.39-2.01zm-6.93-14.64-.24.72q-.12.42-.24.87l-.15.69q-.15.75-.36 1.83-.18 1.05-.39 2.31-.18 1.23-.36 2.52-.15 1.26-.27 2.46-.09 1.2-.09 2.19 0 .78.03 1.59.06.78.15 1.62.27-.6.54-1.26.27-.69.54-1.35t.51-1.2l1.5 1.2q-.39 1.11-.84 2.46t-.81 2.58q-.33 1.2-.48 1.95-.06.3-.12.72-.06.39-.03.66v.51q.03.33.06.6l-2.73.18q-.45-1.56-.78-4.11t-.33-5.58q0-1.68.15-3.39.15-1.74.36-3.36t.42-2.97q.24-1.35.36-2.25.09-.57.15-1.23.09-.66.12-1.26z" mask="url(#path-1-outside-1_4449_13746)"/><path stroke="#8b7878" stroke-width="2" d="M134.08 38.354q-.21.66-.36 1.38-.12.72-.27 1.38-.12.72-.33 1.74-.21.99-.48 2.16-.24 1.14-.51 2.31t-.57 2.25q-.3 1.05-.6 1.89 1.92-1.2 3.87-1.71 1.95-.54 4.14-.54 2.43 0 4.14.78 1.74.75 2.7 2.13t.96 3.24q0 2.4-1.17 4.08-1.14 1.68-3.24 2.61-2.1.96-5.01 1.23-2.88.27-6.42-.09l-.81-3.03q2.55.36 4.95.33 2.43-.03 4.35-.54 1.92-.54 3.06-1.65t1.14-2.88q0-1.53-1.29-2.58-1.26-1.08-3.69-1.08-2.64 0-4.92.9t-3.72 2.67q-.24.33-.45.66-.21.3-.42.69l-2.82-.99q.87-1.68 1.59-3.75t1.26-4.17q.57-2.13.93-3.93t.48-2.94q.12-.81.15-1.41.06-.63 0-1.29zm-9.81 3.69q1.29.21 2.91.36t3 .15q1.44 0 3.18-.09a87 87 0 0 0 7.53-.72q1.95-.3 3.75-.69l.06 2.88q-1.53.24-3.39.48t-3.81.45q-1.95.18-3.84.3a73 73 0 0 1-6.57.03q-1.5-.09-2.82-.21z" mask="url(#path-1-outside-1_4449_13746)"/><path stroke="#8b7878" stroke-width="2" d="M162.85 43.994q1.29.12 2.55.21 1.29.06 2.64.06 2.7 0 5.4-.24t5.01-.69v2.91q-2.4.39-5.1.57-2.67.18-5.34.21-1.32 0-2.58-.06-1.23-.06-2.55-.15zm10.89-5.25q-.06.45-.12.93l-.06.93q-.03.51-.06 1.35 0 .84-.03 1.83v1.92q0 1.89.06 3.63.09 1.74.18 3.3t.15 2.94q.06 1.35.06 2.46 0 1.02-.27 1.95t-.9 1.65-1.71 1.11q-1.05.42-2.61.42-3.06 0-4.74-1.2t-1.68-3.36q0-1.38.75-2.46.78-1.08 2.19-1.71 1.44-.63 3.45-.63t3.66.45q1.65.42 3.06 1.17 1.41.72 2.52 1.59 1.14.87 2.07 1.68l-1.62 2.52a27.6 27.6 0 0 0-3.24-2.7q-1.59-1.14-3.24-1.77a9.6 9.6 0 0 0-3.45-.63q-1.53 0-2.49.6-.93.6-.93 1.56 0 1.05.93 1.59.93.51 2.37.51 1.11 0 1.74-.36t.9-1.05.27-1.62q0-.78-.06-2.1-.06-1.35-.15-2.94-.09-1.62-.15-3.3-.06-1.71-.06-3.27v-5.07q0-.39-.06-.93-.03-.57-.12-.99zm-14.73.27q-.09.24-.21.69l-.24.9q-.09.45-.15.72-.15.72-.36 1.86-.18 1.11-.39 2.46-.18 1.32-.36 2.7-.15 1.38-.27 2.64-.09 1.26-.09 2.22 0 .78.06 1.59.06.78.18 1.62.21-.63.48-1.29.27-.69.54-1.35.3-.66.54-1.2l1.5 1.17-.84 2.46q-.45 1.29-.81 2.46-.33 1.17-.51 1.95-.06.3-.12.72-.03.39-.03.66.03.21.03.51.03.33.06.6l-2.67.21q-.48-1.59-.84-4.02-.33-2.46-.33-5.52 0-1.68.15-3.48.15-1.83.36-3.57.24-1.74.45-3.18t.36-2.34q.06-.57.12-1.23.09-.66.12-1.26z" mask="url(#path-1-outside-1_4449_13746)"/><path stroke="#8b7878" stroke-width="2" d="m194.77 54.584-.69-11.04-.09-3.96h4.02l-.09 3.96-.69 11.04zm1.23 7.65q-.96 0-1.62-.63-.63-.63-.63-1.65t.66-1.65 1.59-.63 1.59.63.66 1.65-.66 1.65-1.59.63Z" mask="url(#path-1-outside-1_4449_13746)"/><rect width="216" height="34" x="13" y="33" fill="#fff"/></svg>