<svg width="241" height="87" viewBox="0 0 241 87" fill="none" xmlns="http://www.w3.org/2000/svg">
<mask id="path-1-outside-1_4449_13746" maskUnits="userSpaceOnUse" x="0" y="0" width="241" height="87" fill="black">
<rect fill="white" width="241" height="87"/>
<path d="M1 33.0236C1 24.1871 8.16344 17.0236 17 17.0236H224C232.837 17.0236 240 24.1871 240 33.0236V69.0236C240 77.8602 232.837 85.0236 224 85.0236H17C8.16345 85.0236 1 77.8602 1 69.0236V33.0236Z"/>
<path d="M117.723 2.70655C119.315 0.431148 122.685 0.431153 124.277 2.70655L133.916 16.4802C135.772 19.1313 133.875 22.7736 130.639 22.7736H111.361C108.125 22.7736 106.228 19.1313 108.084 16.4802L117.723 2.70655Z"/>
<path d="M37.81 40.6336C38.91 40.7736 40.14 40.8736 41.5 40.9336C42.88 40.9936 44.33 41.0236 45.85 41.0236C46.83 41.0236 47.82 41.0036 48.82 40.9636C49.82 40.9236 50.78 40.8736 51.7 40.8136C52.64 40.7336 53.48 40.6636 54.22 40.6036V43.7236C53.54 43.7836 52.72 43.8436 51.76 43.9036C50.82 43.9636 49.84 44.0136 48.82 44.0536C47.8 44.0736 46.82 44.0836 45.88 44.0836C44.34 44.0836 42.91 44.0536 41.59 43.9936C40.27 43.9136 39.01 43.8336 37.81 43.7536V40.6336ZM39.61 52.9936C39.43 53.5536 39.29 54.1036 39.19 54.6436C39.09 55.1836 39.04 55.7136 39.04 56.2336C39.04 57.2936 39.58 58.1636 40.66 58.8436C41.76 59.5236 43.45 59.8636 45.73 59.8636C47.11 59.8636 48.43 59.8136 49.69 59.7136C50.97 59.6136 52.16 59.4736 53.26 59.2936C54.36 59.1136 55.31 58.9036 56.11 58.6636L56.14 61.9636C55.36 62.1636 54.43 62.3436 53.35 62.5036C52.29 62.6636 51.12 62.7836 49.84 62.8636C48.58 62.9636 47.25 63.0136 45.85 63.0136C43.71 63.0136 41.9 62.7736 40.42 62.2936C38.94 61.8336 37.82 61.1536 37.06 60.2536C36.3 59.3536 35.92 58.2536 35.92 56.9536C35.92 56.1336 35.99 55.3736 36.13 54.6736C36.27 53.9536 36.4 53.3036 36.52 52.7236L39.61 52.9936Z"/>
<path d="M77.8 39.7336C77.66 39.9336 77.51 40.1636 77.35 40.4236C77.19 40.6636 77.02 40.9236 76.84 41.2036C76.5 41.7236 76.1 42.3736 75.64 43.1536C75.18 43.9136 74.7 44.7336 74.2 45.6136C73.7 46.4936 73.21 47.3636 72.73 48.2236C72.25 49.0836 71.83 49.8636 71.47 50.5636C72.11 50.0636 72.77 49.7036 73.45 49.4836C74.15 49.2436 74.82 49.1236 75.46 49.1236C76.52 49.1236 77.37 49.4536 78.01 50.1136C78.67 50.7536 79.03 51.6836 79.09 52.9036C79.11 53.4236 79.12 54.0136 79.12 54.6736C79.12 55.3136 79.12 55.9436 79.12 56.5636C79.14 57.1836 79.17 57.7236 79.21 58.1836C79.25 58.8836 79.48 59.3836 79.9 59.6836C80.34 59.9636 80.84 60.1036 81.4 60.1036C82.16 60.1036 82.84 59.8936 83.44 59.4736C84.06 59.0536 84.6 58.4936 85.06 57.7936C85.54 57.0736 85.94 56.2936 86.26 55.4536C86.6 54.5936 86.87 53.7336 87.07 52.8736L89.59 54.9436C89.07 56.6036 88.42 58.0636 87.64 59.3236C86.86 60.5636 85.92 61.5336 84.82 62.2336C83.72 62.9536 82.42 63.3136 80.92 63.3136C79.84 63.3136 78.96 63.1136 78.28 62.7136C77.62 62.3136 77.13 61.8136 76.81 61.2136C76.51 60.6136 76.34 59.9936 76.3 59.3536C76.26 58.7736 76.23 58.1536 76.21 57.4936C76.21 56.8136 76.2 56.1536 76.18 55.5136C76.18 54.8536 76.16 54.2836 76.12 53.8036C76.1 53.2036 75.92 52.7436 75.58 52.4236C75.24 52.0836 74.76 51.9136 74.14 51.9136C73.4 51.9136 72.68 52.1336 71.98 52.5736C71.3 53.0136 70.68 53.5936 70.12 54.3136C69.58 55.0336 69.12 55.7936 68.74 56.5936C68.52 57.0336 68.29 57.5636 68.05 58.1836C67.81 58.7836 67.57 59.4136 67.33 60.0736C67.11 60.7136 66.91 61.3236 66.73 61.9036C66.55 62.4836 66.4 62.9636 66.28 63.3436L62.98 62.2336C63.36 61.2136 63.83 60.0636 64.39 58.7836C64.95 57.4836 65.57 56.1236 66.25 54.7036C66.93 53.2636 67.62 51.8436 68.32 50.4436C69.02 49.0436 69.69 47.7136 70.33 46.4536C70.97 45.1936 71.54 44.0936 72.04 43.1536C72.54 42.2136 72.92 41.5036 73.18 41.0236C73.38 40.6636 73.59 40.2736 73.81 39.8536C74.03 39.4136 74.24 38.9236 74.44 38.3836L77.8 39.7336Z"/>
<path d="M104.56 41.4436C105.44 41.5836 106.43 41.6836 107.53 41.7436C108.65 41.8036 109.8 41.8236 110.98 41.8036C112.16 41.7836 113.29 41.7436 114.37 41.6836C115.45 41.6236 116.38 41.5436 117.16 41.4436V44.5036C116.3 44.5836 115.33 44.6536 114.25 44.7136C113.17 44.7536 112.05 44.7736 110.89 44.7736C109.75 44.7736 108.63 44.7536 107.53 44.7136C106.43 44.6536 105.45 44.5836 104.59 44.5036L104.56 41.4436ZM106.27 53.9236C106.15 54.4436 106.05 54.9136 105.97 55.3336C105.91 55.7536 105.88 56.1736 105.88 56.5936C105.88 56.9336 105.95 57.2536 106.09 57.5536C106.25 57.8536 106.5 58.1136 106.84 58.3336C107.2 58.5536 107.68 58.7336 108.28 58.8736C108.9 58.9936 109.66 59.0536 110.56 59.0536C111.92 59.0536 113.19 58.9936 114.37 58.8736C115.57 58.7336 116.79 58.5236 118.03 58.2436L118.09 61.4536C117.15 61.6336 116.05 61.7836 114.79 61.9036C113.55 62.0036 112.12 62.0536 110.5 62.0536C107.96 62.0536 106.08 61.6436 104.86 60.8236C103.66 59.9836 103.06 58.8336 103.06 57.3736C103.06 56.8336 103.1 56.2736 103.18 55.6936C103.26 55.0936 103.39 54.4236 103.57 53.6836L106.27 53.9236ZM99.34 39.2836C99.28 39.4636 99.2 39.7036 99.1 40.0036C99.02 40.2836 98.94 40.5736 98.86 40.8736C98.8 41.1536 98.75 41.3836 98.71 41.5636C98.61 42.0636 98.49 42.6736 98.35 43.3936C98.23 44.0936 98.1 44.8636 97.96 45.7036C97.84 46.5236 97.72 47.3636 97.6 48.2236C97.5 49.0636 97.41 49.8836 97.33 50.6836C97.27 51.4836 97.24 52.2136 97.24 52.8736C97.24 53.3936 97.25 53.9236 97.27 54.4636C97.31 54.9836 97.36 55.5236 97.42 56.0836C97.6 55.6836 97.78 55.2636 97.96 54.8236C98.14 54.3636 98.32 53.9136 98.5 53.4736C98.68 53.0336 98.85 52.6336 99.01 52.2736L100.51 53.4736C100.25 54.2136 99.97 55.0336 99.67 55.9336C99.37 56.8336 99.1 57.6936 98.86 58.5136C98.64 59.3136 98.48 59.9636 98.38 60.4636C98.34 60.6636 98.3 60.9036 98.26 61.1836C98.22 61.4436 98.21 61.6636 98.23 61.8436C98.23 61.9836 98.23 62.1536 98.23 62.3536C98.25 62.5736 98.27 62.7736 98.29 62.9536L95.56 63.1336C95.26 62.0936 95 60.7236 94.78 59.0236C94.56 57.3236 94.45 55.4636 94.45 53.4436C94.45 52.3236 94.5 51.1936 94.6 50.0536C94.7 48.8936 94.82 47.7736 94.96 46.6936C95.1 45.6136 95.24 44.6236 95.38 43.7236C95.54 42.8236 95.66 42.0736 95.74 41.4736C95.8 41.0936 95.85 40.6836 95.89 40.2436C95.95 39.8036 95.99 39.3836 96.01 38.9836L99.34 39.2836Z"/>
<path d="M134.08 38.3536C133.94 38.7936 133.82 39.2536 133.72 39.7336C133.64 40.2136 133.55 40.6736 133.45 41.1136C133.37 41.5936 133.26 42.1736 133.12 42.8536C132.98 43.5136 132.82 44.2336 132.64 45.0136C132.48 45.7736 132.31 46.5436 132.13 47.3236C131.95 48.1036 131.76 48.8536 131.56 49.5736C131.36 50.2736 131.16 50.9036 130.96 51.4636C132.24 50.6636 133.53 50.0936 134.83 49.7536C136.13 49.3936 137.51 49.2136 138.97 49.2136C140.59 49.2136 141.97 49.4736 143.11 49.9936C144.27 50.4936 145.17 51.2036 145.81 52.1236C146.45 53.0436 146.77 54.1236 146.77 55.3636C146.77 56.9636 146.38 58.3236 145.6 59.4436C144.84 60.5636 143.76 61.4336 142.36 62.0536C140.96 62.6936 139.29 63.1036 137.35 63.2836C135.43 63.4636 133.29 63.4336 130.93 63.1936L130.12 60.1636C131.82 60.4036 133.47 60.5136 135.07 60.4936C136.69 60.4736 138.14 60.2936 139.42 59.9536C140.7 59.5936 141.72 59.0436 142.48 58.3036C143.24 57.5636 143.62 56.6036 143.62 55.4236C143.62 54.4036 143.19 53.5436 142.33 52.8436C141.49 52.1236 140.26 51.7636 138.64 51.7636C136.88 51.7636 135.24 52.0636 133.72 52.6636C132.2 53.2636 130.96 54.1536 130 55.3336C129.84 55.5536 129.69 55.7736 129.55 55.9936C129.41 56.1936 129.27 56.4236 129.13 56.6836L126.31 55.6936C126.89 54.5736 127.42 53.3236 127.9 51.9436C128.38 50.5636 128.8 49.1736 129.16 47.7736C129.54 46.3536 129.85 45.0436 130.09 43.8436C130.33 42.6436 130.49 41.6636 130.57 40.9036C130.65 40.3636 130.7 39.8936 130.72 39.4936C130.76 39.0736 130.76 38.6436 130.72 38.2036L134.08 38.3536ZM124.27 42.0436C125.13 42.1836 126.1 42.3036 127.18 42.4036C128.26 42.5036 129.26 42.5536 130.18 42.5536C131.14 42.5536 132.2 42.5236 133.36 42.4636C134.54 42.4036 135.77 42.3136 137.05 42.1936C138.33 42.0736 139.61 41.9236 140.89 41.7436C142.19 41.5436 143.44 41.3136 144.64 41.0536L144.7 43.9336C143.68 44.0936 142.55 44.2536 141.31 44.4136C140.07 44.5736 138.8 44.7236 137.5 44.8636C136.2 44.9836 134.92 45.0836 133.66 45.1636C132.4 45.2236 131.25 45.2536 130.21 45.2536C129.13 45.2536 128.09 45.2336 127.09 45.1936C126.09 45.1336 125.15 45.0636 124.27 44.9836V42.0436Z"/>
<path d="M162.85 43.9936C163.71 44.0736 164.56 44.1436 165.4 44.2036C166.26 44.2436 167.14 44.2636 168.04 44.2636C169.84 44.2636 171.64 44.1836 173.44 44.0236C175.24 43.8636 176.91 43.6336 178.45 43.3336V46.2436C176.85 46.5036 175.15 46.6936 173.35 46.8136C171.57 46.9336 169.79 47.0036 168.01 47.0236C167.13 47.0236 166.27 47.0036 165.43 46.9636C164.61 46.9236 163.76 46.8736 162.88 46.8136L162.85 43.9936ZM173.74 38.7436C173.7 39.0436 173.66 39.3536 173.62 39.6736C173.6 39.9936 173.58 40.3036 173.56 40.6036C173.54 40.9436 173.52 41.3936 173.5 41.9536C173.5 42.5136 173.49 43.1236 173.47 43.7836C173.47 44.4236 173.47 45.0636 173.47 45.7036C173.47 46.9636 173.49 48.1736 173.53 49.3336C173.59 50.4936 173.65 51.5936 173.71 52.6336C173.77 53.6736 173.82 54.6536 173.86 55.5736C173.9 56.4736 173.92 57.2936 173.92 58.0336C173.92 58.7136 173.83 59.3636 173.65 59.9836C173.47 60.6036 173.17 61.1536 172.75 61.6336C172.33 62.1136 171.76 62.4836 171.04 62.7436C170.34 63.0236 169.47 63.1636 168.43 63.1636C166.39 63.1636 164.81 62.7636 163.69 61.9636C162.57 61.1636 162.01 60.0436 162.01 58.6036C162.01 57.6836 162.26 56.8636 162.76 56.1436C163.28 55.4236 164.01 54.8536 164.95 54.4336C165.91 54.0136 167.06 53.8036 168.4 53.8036C169.74 53.8036 170.96 53.9536 172.06 54.2536C173.16 54.5336 174.18 54.9236 175.12 55.4236C176.06 55.9036 176.9 56.4336 177.64 57.0136C178.4 57.5936 179.09 58.1536 179.71 58.6936L178.09 61.2136C177.01 60.1736 175.93 59.2736 174.85 58.5136C173.79 57.7536 172.71 57.1636 171.61 56.7436C170.51 56.3236 169.36 56.1136 168.16 56.1136C167.14 56.1136 166.31 56.3136 165.67 56.7136C165.05 57.1136 164.74 57.6336 164.74 58.2736C164.74 58.9736 165.05 59.5036 165.67 59.8636C166.29 60.2036 167.08 60.3736 168.04 60.3736C168.78 60.3736 169.36 60.2536 169.78 60.0136C170.2 59.7736 170.5 59.4236 170.68 58.9636C170.86 58.5036 170.95 57.9636 170.95 57.3436C170.95 56.8236 170.93 56.1236 170.89 55.2436C170.85 54.3436 170.8 53.3636 170.74 52.3036C170.68 51.2236 170.63 50.1236 170.59 49.0036C170.55 47.8636 170.53 46.7736 170.53 45.7336C170.53 44.6536 170.53 43.6636 170.53 42.7636C170.53 41.8436 170.53 41.1436 170.53 40.6636C170.53 40.4036 170.51 40.0936 170.47 39.7336C170.45 39.3536 170.41 39.0236 170.35 38.7436H173.74ZM159.01 39.0136C158.95 39.1736 158.88 39.4036 158.8 39.7036C158.72 40.0036 158.64 40.3036 158.56 40.6036C158.5 40.9036 158.45 41.1436 158.41 41.3236C158.31 41.8036 158.19 42.4236 158.05 43.1836C157.93 43.9236 157.8 44.7436 157.66 45.6436C157.54 46.5236 157.42 47.4236 157.3 48.3436C157.2 49.2636 157.11 50.1436 157.03 50.9836C156.97 51.8236 156.94 52.5636 156.94 53.2036C156.94 53.7236 156.96 54.2536 157 54.7936C157.04 55.3136 157.1 55.8536 157.18 56.4136C157.32 55.9936 157.48 55.5636 157.66 55.1236C157.84 54.6636 158.02 54.2136 158.2 53.7736C158.4 53.3336 158.58 52.9336 158.74 52.5736L160.24 53.7436C159.98 54.5036 159.7 55.3236 159.4 56.2036C159.1 57.0636 158.83 57.8836 158.59 58.6636C158.37 59.4436 158.2 60.0936 158.08 60.6136C158.04 60.8136 158 61.0536 157.96 61.3336C157.94 61.5936 157.93 61.8136 157.93 61.9936C157.95 62.1336 157.96 62.3036 157.96 62.5036C157.98 62.7236 158 62.9236 158.02 63.1036L155.35 63.3136C155.03 62.2536 154.75 60.9136 154.51 59.2936C154.29 57.6536 154.18 55.8136 154.18 53.7736C154.18 52.6536 154.23 51.4936 154.33 50.2936C154.43 49.0736 154.55 47.8836 154.69 46.7236C154.85 45.5636 155 44.5036 155.14 43.5436C155.28 42.5836 155.4 41.8036 155.5 41.2036C155.54 40.8236 155.58 40.4136 155.62 39.9736C155.68 39.5336 155.72 39.1136 155.74 38.7136L159.01 39.0136Z"/>
<path d="M194.77 54.5836L194.08 43.5436L193.99 39.5836H198.01L197.92 43.5436L197.23 54.5836H194.77ZM196 62.2336C195.36 62.2336 194.82 62.0236 194.38 61.6036C193.96 61.1836 193.75 60.6336 193.75 59.9536C193.75 59.2736 193.97 58.7236 194.41 58.3036C194.85 57.8836 195.38 57.6736 196 57.6736C196.62 57.6736 197.15 57.8836 197.59 58.3036C198.03 58.7236 198.25 59.2736 198.25 59.9536C198.25 60.6336 198.03 61.1836 197.59 61.6036C197.15 62.0236 196.62 62.2336 196 62.2336Z"/>
</mask>
<path d="M1 33.0236C1 24.1871 8.16344 17.0236 17 17.0236H224C232.837 17.0236 240 24.1871 240 33.0236V69.0236C240 77.8602 232.837 85.0236 224 85.0236H17C8.16345 85.0236 1 77.8602 1 69.0236V33.0236Z" fill="white"/>
<path d="M117.723 2.70655C119.315 0.431148 122.685 0.431153 124.277 2.70655L133.916 16.4802C135.772 19.1313 133.875 22.7736 130.639 22.7736H111.361C108.125 22.7736 106.228 19.1313 108.084 16.4802L117.723 2.70655Z" fill="white"/>
<path d="M37.81 40.6336C38.91 40.7736 40.14 40.8736 41.5 40.9336C42.88 40.9936 44.33 41.0236 45.85 41.0236C46.83 41.0236 47.82 41.0036 48.82 40.9636C49.82 40.9236 50.78 40.8736 51.7 40.8136C52.64 40.7336 53.48 40.6636 54.22 40.6036V43.7236C53.54 43.7836 52.72 43.8436 51.76 43.9036C50.82 43.9636 49.84 44.0136 48.82 44.0536C47.8 44.0736 46.82 44.0836 45.88 44.0836C44.34 44.0836 42.91 44.0536 41.59 43.9936C40.27 43.9136 39.01 43.8336 37.81 43.7536V40.6336ZM39.61 52.9936C39.43 53.5536 39.29 54.1036 39.19 54.6436C39.09 55.1836 39.04 55.7136 39.04 56.2336C39.04 57.2936 39.58 58.1636 40.66 58.8436C41.76 59.5236 43.45 59.8636 45.73 59.8636C47.11 59.8636 48.43 59.8136 49.69 59.7136C50.97 59.6136 52.16 59.4736 53.26 59.2936C54.36 59.1136 55.31 58.9036 56.11 58.6636L56.14 61.9636C55.36 62.1636 54.43 62.3436 53.35 62.5036C52.29 62.6636 51.12 62.7836 49.84 62.8636C48.58 62.9636 47.25 63.0136 45.85 63.0136C43.71 63.0136 41.9 62.7736 40.42 62.2936C38.94 61.8336 37.82 61.1536 37.06 60.2536C36.3 59.3536 35.92 58.2536 35.92 56.9536C35.92 56.1336 35.99 55.3736 36.13 54.6736C36.27 53.9536 36.4 53.3036 36.52 52.7236L39.61 52.9936Z" fill="#8B7878"/>
<path d="M77.8 39.7336C77.66 39.9336 77.51 40.1636 77.35 40.4236C77.19 40.6636 77.02 40.9236 76.84 41.2036C76.5 41.7236 76.1 42.3736 75.64 43.1536C75.18 43.9136 74.7 44.7336 74.2 45.6136C73.7 46.4936 73.21 47.3636 72.73 48.2236C72.25 49.0836 71.83 49.8636 71.47 50.5636C72.11 50.0636 72.77 49.7036 73.45 49.4836C74.15 49.2436 74.82 49.1236 75.46 49.1236C76.52 49.1236 77.37 49.4536 78.01 50.1136C78.67 50.7536 79.03 51.6836 79.09 52.9036C79.11 53.4236 79.12 54.0136 79.12 54.6736C79.12 55.3136 79.12 55.9436 79.12 56.5636C79.14 57.1836 79.17 57.7236 79.21 58.1836C79.25 58.8836 79.48 59.3836 79.9 59.6836C80.34 59.9636 80.84 60.1036 81.4 60.1036C82.16 60.1036 82.84 59.8936 83.44 59.4736C84.06 59.0536 84.6 58.4936 85.06 57.7936C85.54 57.0736 85.94 56.2936 86.26 55.4536C86.6 54.5936 86.87 53.7336 87.07 52.8736L89.59 54.9436C89.07 56.6036 88.42 58.0636 87.64 59.3236C86.86 60.5636 85.92 61.5336 84.82 62.2336C83.72 62.9536 82.42 63.3136 80.92 63.3136C79.84 63.3136 78.96 63.1136 78.28 62.7136C77.62 62.3136 77.13 61.8136 76.81 61.2136C76.51 60.6136 76.34 59.9936 76.3 59.3536C76.26 58.7736 76.23 58.1536 76.21 57.4936C76.21 56.8136 76.2 56.1536 76.18 55.5136C76.18 54.8536 76.16 54.2836 76.12 53.8036C76.1 53.2036 75.92 52.7436 75.58 52.4236C75.24 52.0836 74.76 51.9136 74.14 51.9136C73.4 51.9136 72.68 52.1336 71.98 52.5736C71.3 53.0136 70.68 53.5936 70.12 54.3136C69.58 55.0336 69.12 55.7936 68.74 56.5936C68.52 57.0336 68.29 57.5636 68.05 58.1836C67.81 58.7836 67.57 59.4136 67.33 60.0736C67.11 60.7136 66.91 61.3236 66.73 61.9036C66.55 62.4836 66.4 62.9636 66.28 63.3436L62.98 62.2336C63.36 61.2136 63.83 60.0636 64.39 58.7836C64.95 57.4836 65.57 56.1236 66.25 54.7036C66.93 53.2636 67.62 51.8436 68.32 50.4436C69.02 49.0436 69.69 47.7136 70.33 46.4536C70.97 45.1936 71.54 44.0936 72.04 43.1536C72.54 42.2136 72.92 41.5036 73.18 41.0236C73.38 40.6636 73.59 40.2736 73.81 39.8536C74.03 39.4136 74.24 38.9236 74.44 38.3836L77.8 39.7336Z" fill="#8B7878"/>
<path d="M104.56 41.4436C105.44 41.5836 106.43 41.6836 107.53 41.7436C108.65 41.8036 109.8 41.8236 110.98 41.8036C112.16 41.7836 113.29 41.7436 114.37 41.6836C115.45 41.6236 116.38 41.5436 117.16 41.4436V44.5036C116.3 44.5836 115.33 44.6536 114.25 44.7136C113.17 44.7536 112.05 44.7736 110.89 44.7736C109.75 44.7736 108.63 44.7536 107.53 44.7136C106.43 44.6536 105.45 44.5836 104.59 44.5036L104.56 41.4436ZM106.27 53.9236C106.15 54.4436 106.05 54.9136 105.97 55.3336C105.91 55.7536 105.88 56.1736 105.88 56.5936C105.88 56.9336 105.95 57.2536 106.09 57.5536C106.25 57.8536 106.5 58.1136 106.84 58.3336C107.2 58.5536 107.68 58.7336 108.28 58.8736C108.9 58.9936 109.66 59.0536 110.56 59.0536C111.92 59.0536 113.19 58.9936 114.37 58.8736C115.57 58.7336 116.79 58.5236 118.03 58.2436L118.09 61.4536C117.15 61.6336 116.05 61.7836 114.79 61.9036C113.55 62.0036 112.12 62.0536 110.5 62.0536C107.96 62.0536 106.08 61.6436 104.86 60.8236C103.66 59.9836 103.06 58.8336 103.06 57.3736C103.06 56.8336 103.1 56.2736 103.18 55.6936C103.26 55.0936 103.39 54.4236 103.57 53.6836L106.27 53.9236ZM99.34 39.2836C99.28 39.4636 99.2 39.7036 99.1 40.0036C99.02 40.2836 98.94 40.5736 98.86 40.8736C98.8 41.1536 98.75 41.3836 98.71 41.5636C98.61 42.0636 98.49 42.6736 98.35 43.3936C98.23 44.0936 98.1 44.8636 97.96 45.7036C97.84 46.5236 97.72 47.3636 97.6 48.2236C97.5 49.0636 97.41 49.8836 97.33 50.6836C97.27 51.4836 97.24 52.2136 97.24 52.8736C97.24 53.3936 97.25 53.9236 97.27 54.4636C97.31 54.9836 97.36 55.5236 97.42 56.0836C97.6 55.6836 97.78 55.2636 97.96 54.8236C98.14 54.3636 98.32 53.9136 98.5 53.4736C98.68 53.0336 98.85 52.6336 99.01 52.2736L100.51 53.4736C100.25 54.2136 99.97 55.0336 99.67 55.9336C99.37 56.8336 99.1 57.6936 98.86 58.5136C98.64 59.3136 98.48 59.9636 98.38 60.4636C98.34 60.6636 98.3 60.9036 98.26 61.1836C98.22 61.4436 98.21 61.6636 98.23 61.8436C98.23 61.9836 98.23 62.1536 98.23 62.3536C98.25 62.5736 98.27 62.7736 98.29 62.9536L95.56 63.1336C95.26 62.0936 95 60.7236 94.78 59.0236C94.56 57.3236 94.45 55.4636 94.45 53.4436C94.45 52.3236 94.5 51.1936 94.6 50.0536C94.7 48.8936 94.82 47.7736 94.96 46.6936C95.1 45.6136 95.24 44.6236 95.38 43.7236C95.54 42.8236 95.66 42.0736 95.74 41.4736C95.8 41.0936 95.85 40.6836 95.89 40.2436C95.95 39.8036 95.99 39.3836 96.01 38.9836L99.34 39.2836Z" fill="#8B7878"/>
<path d="M134.08 38.3536C133.94 38.7936 133.82 39.2536 133.72 39.7336C133.64 40.2136 133.55 40.6736 133.45 41.1136C133.37 41.5936 133.26 42.1736 133.12 42.8536C132.98 43.5136 132.82 44.2336 132.64 45.0136C132.48 45.7736 132.31 46.5436 132.13 47.3236C131.95 48.1036 131.76 48.8536 131.56 49.5736C131.36 50.2736 131.16 50.9036 130.96 51.4636C132.24 50.6636 133.53 50.0936 134.83 49.7536C136.13 49.3936 137.51 49.2136 138.97 49.2136C140.59 49.2136 141.97 49.4736 143.11 49.9936C144.27 50.4936 145.17 51.2036 145.81 52.1236C146.45 53.0436 146.77 54.1236 146.77 55.3636C146.77 56.9636 146.38 58.3236 145.6 59.4436C144.84 60.5636 143.76 61.4336 142.36 62.0536C140.96 62.6936 139.29 63.1036 137.35 63.2836C135.43 63.4636 133.29 63.4336 130.93 63.1936L130.12 60.1636C131.82 60.4036 133.47 60.5136 135.07 60.4936C136.69 60.4736 138.14 60.2936 139.42 59.9536C140.7 59.5936 141.72 59.0436 142.48 58.3036C143.24 57.5636 143.62 56.6036 143.62 55.4236C143.62 54.4036 143.19 53.5436 142.33 52.8436C141.49 52.1236 140.26 51.7636 138.64 51.7636C136.88 51.7636 135.24 52.0636 133.72 52.6636C132.2 53.2636 130.96 54.1536 130 55.3336C129.84 55.5536 129.69 55.7736 129.55 55.9936C129.41 56.1936 129.27 56.4236 129.13 56.6836L126.31 55.6936C126.89 54.5736 127.42 53.3236 127.9 51.9436C128.38 50.5636 128.8 49.1736 129.16 47.7736C129.54 46.3536 129.85 45.0436 130.09 43.8436C130.33 42.6436 130.49 41.6636 130.57 40.9036C130.65 40.3636 130.7 39.8936 130.72 39.4936C130.76 39.0736 130.76 38.6436 130.72 38.2036L134.08 38.3536ZM124.27 42.0436C125.13 42.1836 126.1 42.3036 127.18 42.4036C128.26 42.5036 129.26 42.5536 130.18 42.5536C131.14 42.5536 132.2 42.5236 133.36 42.4636C134.54 42.4036 135.77 42.3136 137.05 42.1936C138.33 42.0736 139.61 41.9236 140.89 41.7436C142.19 41.5436 143.44 41.3136 144.64 41.0536L144.7 43.9336C143.68 44.0936 142.55 44.2536 141.31 44.4136C140.07 44.5736 138.8 44.7236 137.5 44.8636C136.2 44.9836 134.92 45.0836 133.66 45.1636C132.4 45.2236 131.25 45.2536 130.21 45.2536C129.13 45.2536 128.09 45.2336 127.09 45.1936C126.09 45.1336 125.15 45.0636 124.27 44.9836V42.0436Z" fill="#8B7878"/>
<path d="M162.85 43.9936C163.71 44.0736 164.56 44.1436 165.4 44.2036C166.26 44.2436 167.14 44.2636 168.04 44.2636C169.84 44.2636 171.64 44.1836 173.44 44.0236C175.24 43.8636 176.91 43.6336 178.45 43.3336V46.2436C176.85 46.5036 175.15 46.6936 173.35 46.8136C171.57 46.9336 169.79 47.0036 168.01 47.0236C167.13 47.0236 166.27 47.0036 165.43 46.9636C164.61 46.9236 163.76 46.8736 162.88 46.8136L162.85 43.9936ZM173.74 38.7436C173.7 39.0436 173.66 39.3536 173.62 39.6736C173.6 39.9936 173.58 40.3036 173.56 40.6036C173.54 40.9436 173.52 41.3936 173.5 41.9536C173.5 42.5136 173.49 43.1236 173.47 43.7836C173.47 44.4236 173.47 45.0636 173.47 45.7036C173.47 46.9636 173.49 48.1736 173.53 49.3336C173.59 50.4936 173.65 51.5936 173.71 52.6336C173.77 53.6736 173.82 54.6536 173.86 55.5736C173.9 56.4736 173.92 57.2936 173.92 58.0336C173.92 58.7136 173.83 59.3636 173.65 59.9836C173.47 60.6036 173.17 61.1536 172.75 61.6336C172.33 62.1136 171.76 62.4836 171.04 62.7436C170.34 63.0236 169.47 63.1636 168.43 63.1636C166.39 63.1636 164.81 62.7636 163.69 61.9636C162.57 61.1636 162.01 60.0436 162.01 58.6036C162.01 57.6836 162.26 56.8636 162.76 56.1436C163.28 55.4236 164.01 54.8536 164.95 54.4336C165.91 54.0136 167.06 53.8036 168.4 53.8036C169.74 53.8036 170.96 53.9536 172.06 54.2536C173.16 54.5336 174.18 54.9236 175.12 55.4236C176.06 55.9036 176.9 56.4336 177.64 57.0136C178.4 57.5936 179.09 58.1536 179.71 58.6936L178.09 61.2136C177.01 60.1736 175.93 59.2736 174.85 58.5136C173.79 57.7536 172.71 57.1636 171.61 56.7436C170.51 56.3236 169.36 56.1136 168.16 56.1136C167.14 56.1136 166.31 56.3136 165.67 56.7136C165.05 57.1136 164.74 57.6336 164.74 58.2736C164.74 58.9736 165.05 59.5036 165.67 59.8636C166.29 60.2036 167.08 60.3736 168.04 60.3736C168.78 60.3736 169.36 60.2536 169.78 60.0136C170.2 59.7736 170.5 59.4236 170.68 58.9636C170.86 58.5036 170.95 57.9636 170.95 57.3436C170.95 56.8236 170.93 56.1236 170.89 55.2436C170.85 54.3436 170.8 53.3636 170.74 52.3036C170.68 51.2236 170.63 50.1236 170.59 49.0036C170.55 47.8636 170.53 46.7736 170.53 45.7336C170.53 44.6536 170.53 43.6636 170.53 42.7636C170.53 41.8436 170.53 41.1436 170.53 40.6636C170.53 40.4036 170.51 40.0936 170.47 39.7336C170.45 39.3536 170.41 39.0236 170.35 38.7436H173.74ZM159.01 39.0136C158.95 39.1736 158.88 39.4036 158.8 39.7036C158.72 40.0036 158.64 40.3036 158.56 40.6036C158.5 40.9036 158.45 41.1436 158.41 41.3236C158.31 41.8036 158.19 42.4236 158.05 43.1836C157.93 43.9236 157.8 44.7436 157.66 45.6436C157.54 46.5236 157.42 47.4236 157.3 48.3436C157.2 49.2636 157.11 50.1436 157.03 50.9836C156.97 51.8236 156.94 52.5636 156.94 53.2036C156.94 53.7236 156.96 54.2536 157 54.7936C157.04 55.3136 157.1 55.8536 157.18 56.4136C157.32 55.9936 157.48 55.5636 157.66 55.1236C157.84 54.6636 158.02 54.2136 158.2 53.7736C158.4 53.3336 158.58 52.9336 158.74 52.5736L160.24 53.7436C159.98 54.5036 159.7 55.3236 159.4 56.2036C159.1 57.0636 158.83 57.8836 158.59 58.6636C158.37 59.4436 158.2 60.0936 158.08 60.6136C158.04 60.8136 158 61.0536 157.96 61.3336C157.94 61.5936 157.93 61.8136 157.93 61.9936C157.95 62.1336 157.96 62.3036 157.96 62.5036C157.98 62.7236 158 62.9236 158.02 63.1036L155.35 63.3136C155.03 62.2536 154.75 60.9136 154.51 59.2936C154.29 57.6536 154.18 55.8136 154.18 53.7736C154.18 52.6536 154.23 51.4936 154.33 50.2936C154.43 49.0736 154.55 47.8836 154.69 46.7236C154.85 45.5636 155 44.5036 155.14 43.5436C155.28 42.5836 155.4 41.8036 155.5 41.2036C155.54 40.8236 155.58 40.4136 155.62 39.9736C155.68 39.5336 155.72 39.1136 155.74 38.7136L159.01 39.0136Z" fill="#8B7878"/>
<path d="M194.77 54.5836L194.08 43.5436L193.99 39.5836H198.01L197.92 43.5436L197.23 54.5836H194.77ZM196 62.2336C195.36 62.2336 194.82 62.0236 194.38 61.6036C193.96 61.1836 193.75 60.6336 193.75 59.9536C193.75 59.2736 193.97 58.7236 194.41 58.3036C194.85 57.8836 195.38 57.6736 196 57.6736C196.62 57.6736 197.15 57.8836 197.59 58.3036C198.03 58.7236 198.25 59.2736 198.25 59.9536C198.25 60.6336 198.03 61.1836 197.59 61.6036C197.15 62.0236 196.62 62.2336 196 62.2336Z" fill="#8B7878"/>
<path d="M1 33.0236C1 24.1871 8.16344 17.0236 17 17.0236H224C232.837 17.0236 240 24.1871 240 33.0236V69.0236C240 77.8602 232.837 85.0236 224 85.0236H17C8.16345 85.0236 1 77.8602 1 69.0236V33.0236Z" stroke="#8B7878" stroke-width="2" mask="url(#path-1-outside-1_4449_13746)"/>
<path d="M117.723 2.70655C119.315 0.431148 122.685 0.431153 124.277 2.70655L133.916 16.4802C135.772 19.1313 133.875 22.7736 130.639 22.7736H111.361C108.125 22.7736 106.228 19.1313 108.084 16.4802L117.723 2.70655Z" stroke="#8B7878" stroke-width="2" mask="url(#path-1-outside-1_4449_13746)"/>
<path d="M37.81 40.6336C38.91 40.7736 40.14 40.8736 41.5 40.9336C42.88 40.9936 44.33 41.0236 45.85 41.0236C46.83 41.0236 47.82 41.0036 48.82 40.9636C49.82 40.9236 50.78 40.8736 51.7 40.8136C52.64 40.7336 53.48 40.6636 54.22 40.6036V43.7236C53.54 43.7836 52.72 43.8436 51.76 43.9036C50.82 43.9636 49.84 44.0136 48.82 44.0536C47.8 44.0736 46.82 44.0836 45.88 44.0836C44.34 44.0836 42.91 44.0536 41.59 43.9936C40.27 43.9136 39.01 43.8336 37.81 43.7536V40.6336ZM39.61 52.9936C39.43 53.5536 39.29 54.1036 39.19 54.6436C39.09 55.1836 39.04 55.7136 39.04 56.2336C39.04 57.2936 39.58 58.1636 40.66 58.8436C41.76 59.5236 43.45 59.8636 45.73 59.8636C47.11 59.8636 48.43 59.8136 49.69 59.7136C50.97 59.6136 52.16 59.4736 53.26 59.2936C54.36 59.1136 55.31 58.9036 56.11 58.6636L56.14 61.9636C55.36 62.1636 54.43 62.3436 53.35 62.5036C52.29 62.6636 51.12 62.7836 49.84 62.8636C48.58 62.9636 47.25 63.0136 45.85 63.0136C43.71 63.0136 41.9 62.7736 40.42 62.2936C38.94 61.8336 37.82 61.1536 37.06 60.2536C36.3 59.3536 35.92 58.2536 35.92 56.9536C35.92 56.1336 35.99 55.3736 36.13 54.6736C36.27 53.9536 36.4 53.3036 36.52 52.7236L39.61 52.9936Z" stroke="#8B7878" stroke-width="2" mask="url(#path-1-outside-1_4449_13746)"/>
<path d="M77.8 39.7336C77.66 39.9336 77.51 40.1636 77.35 40.4236C77.19 40.6636 77.02 40.9236 76.84 41.2036C76.5 41.7236 76.1 42.3736 75.64 43.1536C75.18 43.9136 74.7 44.7336 74.2 45.6136C73.7 46.4936 73.21 47.3636 72.73 48.2236C72.25 49.0836 71.83 49.8636 71.47 50.5636C72.11 50.0636 72.77 49.7036 73.45 49.4836C74.15 49.2436 74.82 49.1236 75.46 49.1236C76.52 49.1236 77.37 49.4536 78.01 50.1136C78.67 50.7536 79.03 51.6836 79.09 52.9036C79.11 53.4236 79.12 54.0136 79.12 54.6736C79.12 55.3136 79.12 55.9436 79.12 56.5636C79.14 57.1836 79.17 57.7236 79.21 58.1836C79.25 58.8836 79.48 59.3836 79.9 59.6836C80.34 59.9636 80.84 60.1036 81.4 60.1036C82.16 60.1036 82.84 59.8936 83.44 59.4736C84.06 59.0536 84.6 58.4936 85.06 57.7936C85.54 57.0736 85.94 56.2936 86.26 55.4536C86.6 54.5936 86.87 53.7336 87.07 52.8736L89.59 54.9436C89.07 56.6036 88.42 58.0636 87.64 59.3236C86.86 60.5636 85.92 61.5336 84.82 62.2336C83.72 62.9536 82.42 63.3136 80.92 63.3136C79.84 63.3136 78.96 63.1136 78.28 62.7136C77.62 62.3136 77.13 61.8136 76.81 61.2136C76.51 60.6136 76.34 59.9936 76.3 59.3536C76.26 58.7736 76.23 58.1536 76.21 57.4936C76.21 56.8136 76.2 56.1536 76.18 55.5136C76.18 54.8536 76.16 54.2836 76.12 53.8036C76.1 53.2036 75.92 52.7436 75.58 52.4236C75.24 52.0836 74.76 51.9136 74.14 51.9136C73.4 51.9136 72.68 52.1336 71.98 52.5736C71.3 53.0136 70.68 53.5936 70.12 54.3136C69.58 55.0336 69.12 55.7936 68.74 56.5936C68.52 57.0336 68.29 57.5636 68.05 58.1836C67.81 58.7836 67.57 59.4136 67.33 60.0736C67.11 60.7136 66.91 61.3236 66.73 61.9036C66.55 62.4836 66.4 62.9636 66.28 63.3436L62.98 62.2336C63.36 61.2136 63.83 60.0636 64.39 58.7836C64.95 57.4836 65.57 56.1236 66.25 54.7036C66.93 53.2636 67.62 51.8436 68.32 50.4436C69.02 49.0436 69.69 47.7136 70.33 46.4536C70.97 45.1936 71.54 44.0936 72.04 43.1536C72.54 42.2136 72.92 41.5036 73.18 41.0236C73.38 40.6636 73.59 40.2736 73.81 39.8536C74.03 39.4136 74.24 38.9236 74.44 38.3836L77.8 39.7336Z" stroke="#8B7878" stroke-width="2" mask="url(#path-1-outside-1_4449_13746)"/>
<path d="M104.56 41.4436C105.44 41.5836 106.43 41.6836 107.53 41.7436C108.65 41.8036 109.8 41.8236 110.98 41.8036C112.16 41.7836 113.29 41.7436 114.37 41.6836C115.45 41.6236 116.38 41.5436 117.16 41.4436V44.5036C116.3 44.5836 115.33 44.6536 114.25 44.7136C113.17 44.7536 112.05 44.7736 110.89 44.7736C109.75 44.7736 108.63 44.7536 107.53 44.7136C106.43 44.6536 105.45 44.5836 104.59 44.5036L104.56 41.4436ZM106.27 53.9236C106.15 54.4436 106.05 54.9136 105.97 55.3336C105.91 55.7536 105.88 56.1736 105.88 56.5936C105.88 56.9336 105.95 57.2536 106.09 57.5536C106.25 57.8536 106.5 58.1136 106.84 58.3336C107.2 58.5536 107.68 58.7336 108.28 58.8736C108.9 58.9936 109.66 59.0536 110.56 59.0536C111.92 59.0536 113.19 58.9936 114.37 58.8736C115.57 58.7336 116.79 58.5236 118.03 58.2436L118.09 61.4536C117.15 61.6336 116.05 61.7836 114.79 61.9036C113.55 62.0036 112.12 62.0536 110.5 62.0536C107.96 62.0536 106.08 61.6436 104.86 60.8236C103.66 59.9836 103.06 58.8336 103.06 57.3736C103.06 56.8336 103.1 56.2736 103.18 55.6936C103.26 55.0936 103.39 54.4236 103.57 53.6836L106.27 53.9236ZM99.34 39.2836C99.28 39.4636 99.2 39.7036 99.1 40.0036C99.02 40.2836 98.94 40.5736 98.86 40.8736C98.8 41.1536 98.75 41.3836 98.71 41.5636C98.61 42.0636 98.49 42.6736 98.35 43.3936C98.23 44.0936 98.1 44.8636 97.96 45.7036C97.84 46.5236 97.72 47.3636 97.6 48.2236C97.5 49.0636 97.41 49.8836 97.33 50.6836C97.27 51.4836 97.24 52.2136 97.24 52.8736C97.24 53.3936 97.25 53.9236 97.27 54.4636C97.31 54.9836 97.36 55.5236 97.42 56.0836C97.6 55.6836 97.78 55.2636 97.96 54.8236C98.14 54.3636 98.32 53.9136 98.5 53.4736C98.68 53.0336 98.85 52.6336 99.01 52.2736L100.51 53.4736C100.25 54.2136 99.97 55.0336 99.67 55.9336C99.37 56.8336 99.1 57.6936 98.86 58.5136C98.64 59.3136 98.48 59.9636 98.38 60.4636C98.34 60.6636 98.3 60.9036 98.26 61.1836C98.22 61.4436 98.21 61.6636 98.23 61.8436C98.23 61.9836 98.23 62.1536 98.23 62.3536C98.25 62.5736 98.27 62.7736 98.29 62.9536L95.56 63.1336C95.26 62.0936 95 60.7236 94.78 59.0236C94.56 57.3236 94.45 55.4636 94.45 53.4436C94.45 52.3236 94.5 51.1936 94.6 50.0536C94.7 48.8936 94.82 47.7736 94.96 46.6936C95.1 45.6136 95.24 44.6236 95.38 43.7236C95.54 42.8236 95.66 42.0736 95.74 41.4736C95.8 41.0936 95.85 40.6836 95.89 40.2436C95.95 39.8036 95.99 39.3836 96.01 38.9836L99.34 39.2836Z" stroke="#8B7878" stroke-width="2" mask="url(#path-1-outside-1_4449_13746)"/>
<path d="M134.08 38.3536C133.94 38.7936 133.82 39.2536 133.72 39.7336C133.64 40.2136 133.55 40.6736 133.45 41.1136C133.37 41.5936 133.26 42.1736 133.12 42.8536C132.98 43.5136 132.82 44.2336 132.64 45.0136C132.48 45.7736 132.31 46.5436 132.13 47.3236C131.95 48.1036 131.76 48.8536 131.56 49.5736C131.36 50.2736 131.16 50.9036 130.96 51.4636C132.24 50.6636 133.53 50.0936 134.83 49.7536C136.13 49.3936 137.51 49.2136 138.97 49.2136C140.59 49.2136 141.97 49.4736 143.11 49.9936C144.27 50.4936 145.17 51.2036 145.81 52.1236C146.45 53.0436 146.77 54.1236 146.77 55.3636C146.77 56.9636 146.38 58.3236 145.6 59.4436C144.84 60.5636 143.76 61.4336 142.36 62.0536C140.96 62.6936 139.29 63.1036 137.35 63.2836C135.43 63.4636 133.29 63.4336 130.93 63.1936L130.12 60.1636C131.82 60.4036 133.47 60.5136 135.07 60.4936C136.69 60.4736 138.14 60.2936 139.42 59.9536C140.7 59.5936 141.72 59.0436 142.48 58.3036C143.24 57.5636 143.62 56.6036 143.62 55.4236C143.62 54.4036 143.19 53.5436 142.33 52.8436C141.49 52.1236 140.26 51.7636 138.64 51.7636C136.88 51.7636 135.24 52.0636 133.72 52.6636C132.2 53.2636 130.96 54.1536 130 55.3336C129.84 55.5536 129.69 55.7736 129.55 55.9936C129.41 56.1936 129.27 56.4236 129.13 56.6836L126.31 55.6936C126.89 54.5736 127.42 53.3236 127.9 51.9436C128.38 50.5636 128.8 49.1736 129.16 47.7736C129.54 46.3536 129.85 45.0436 130.09 43.8436C130.33 42.6436 130.49 41.6636 130.57 40.9036C130.65 40.3636 130.7 39.8936 130.72 39.4936C130.76 39.0736 130.76 38.6436 130.72 38.2036L134.08 38.3536ZM124.27 42.0436C125.13 42.1836 126.1 42.3036 127.18 42.4036C128.26 42.5036 129.26 42.5536 130.18 42.5536C131.14 42.5536 132.2 42.5236 133.36 42.4636C134.54 42.4036 135.77 42.3136 137.05 42.1936C138.33 42.0736 139.61 41.9236 140.89 41.7436C142.19 41.5436 143.44 41.3136 144.64 41.0536L144.7 43.9336C143.68 44.0936 142.55 44.2536 141.31 44.4136C140.07 44.5736 138.8 44.7236 137.5 44.8636C136.2 44.9836 134.92 45.0836 133.66 45.1636C132.4 45.2236 131.25 45.2536 130.21 45.2536C129.13 45.2536 128.09 45.2336 127.09 45.1936C126.09 45.1336 125.15 45.0636 124.27 44.9836V42.0436Z" stroke="#8B7878" stroke-width="2" mask="url(#path-1-outside-1_4449_13746)"/>
<path d="M162.85 43.9936C163.71 44.0736 164.56 44.1436 165.4 44.2036C166.26 44.2436 167.14 44.2636 168.04 44.2636C169.84 44.2636 171.64 44.1836 173.44 44.0236C175.24 43.8636 176.91 43.6336 178.45 43.3336V46.2436C176.85 46.5036 175.15 46.6936 173.35 46.8136C171.57 46.9336 169.79 47.0036 168.01 47.0236C167.13 47.0236 166.27 47.0036 165.43 46.9636C164.61 46.9236 163.76 46.8736 162.88 46.8136L162.85 43.9936ZM173.74 38.7436C173.7 39.0436 173.66 39.3536 173.62 39.6736C173.6 39.9936 173.58 40.3036 173.56 40.6036C173.54 40.9436 173.52 41.3936 173.5 41.9536C173.5 42.5136 173.49 43.1236 173.47 43.7836C173.47 44.4236 173.47 45.0636 173.47 45.7036C173.47 46.9636 173.49 48.1736 173.53 49.3336C173.59 50.4936 173.65 51.5936 173.71 52.6336C173.77 53.6736 173.82 54.6536 173.86 55.5736C173.9 56.4736 173.92 57.2936 173.92 58.0336C173.92 58.7136 173.83 59.3636 173.65 59.9836C173.47 60.6036 173.17 61.1536 172.75 61.6336C172.33 62.1136 171.76 62.4836 171.04 62.7436C170.34 63.0236 169.47 63.1636 168.43 63.1636C166.39 63.1636 164.81 62.7636 163.69 61.9636C162.57 61.1636 162.01 60.0436 162.01 58.6036C162.01 57.6836 162.26 56.8636 162.76 56.1436C163.28 55.4236 164.01 54.8536 164.95 54.4336C165.91 54.0136 167.06 53.8036 168.4 53.8036C169.74 53.8036 170.96 53.9536 172.06 54.2536C173.16 54.5336 174.18 54.9236 175.12 55.4236C176.06 55.9036 176.9 56.4336 177.64 57.0136C178.4 57.5936 179.09 58.1536 179.71 58.6936L178.09 61.2136C177.01 60.1736 175.93 59.2736 174.85 58.5136C173.79 57.7536 172.71 57.1636 171.61 56.7436C170.51 56.3236 169.36 56.1136 168.16 56.1136C167.14 56.1136 166.31 56.3136 165.67 56.7136C165.05 57.1136 164.74 57.6336 164.74 58.2736C164.74 58.9736 165.05 59.5036 165.67 59.8636C166.29 60.2036 167.08 60.3736 168.04 60.3736C168.78 60.3736 169.36 60.2536 169.78 60.0136C170.2 59.7736 170.5 59.4236 170.68 58.9636C170.86 58.5036 170.95 57.9636 170.95 57.3436C170.95 56.8236 170.93 56.1236 170.89 55.2436C170.85 54.3436 170.8 53.3636 170.74 52.3036C170.68 51.2236 170.63 50.1236 170.59 49.0036C170.55 47.8636 170.53 46.7736 170.53 45.7336C170.53 44.6536 170.53 43.6636 170.53 42.7636C170.53 41.8436 170.53 41.1436 170.53 40.6636C170.53 40.4036 170.51 40.0936 170.47 39.7336C170.45 39.3536 170.41 39.0236 170.35 38.7436H173.74ZM159.01 39.0136C158.95 39.1736 158.88 39.4036 158.8 39.7036C158.72 40.0036 158.64 40.3036 158.56 40.6036C158.5 40.9036 158.45 41.1436 158.41 41.3236C158.31 41.8036 158.19 42.4236 158.05 43.1836C157.93 43.9236 157.8 44.7436 157.66 45.6436C157.54 46.5236 157.42 47.4236 157.3 48.3436C157.2 49.2636 157.11 50.1436 157.03 50.9836C156.97 51.8236 156.94 52.5636 156.94 53.2036C156.94 53.7236 156.96 54.2536 157 54.7936C157.04 55.3136 157.1 55.8536 157.18 56.4136C157.32 55.9936 157.48 55.5636 157.66 55.1236C157.84 54.6636 158.02 54.2136 158.2 53.7736C158.4 53.3336 158.58 52.9336 158.74 52.5736L160.24 53.7436C159.98 54.5036 159.7 55.3236 159.4 56.2036C159.1 57.0636 158.83 57.8836 158.59 58.6636C158.37 59.4436 158.2 60.0936 158.08 60.6136C158.04 60.8136 158 61.0536 157.96 61.3336C157.94 61.5936 157.93 61.8136 157.93 61.9936C157.95 62.1336 157.96 62.3036 157.96 62.5036C157.98 62.7236 158 62.9236 158.02 63.1036L155.35 63.3136C155.03 62.2536 154.75 60.9136 154.51 59.2936C154.29 57.6536 154.18 55.8136 154.18 53.7736C154.18 52.6536 154.23 51.4936 154.33 50.2936C154.43 49.0736 154.55 47.8836 154.69 46.7236C154.85 45.5636 155 44.5036 155.14 43.5436C155.28 42.5836 155.4 41.8036 155.5 41.2036C155.54 40.8236 155.58 40.4136 155.62 39.9736C155.68 39.5336 155.72 39.1136 155.74 38.7136L159.01 39.0136Z" stroke="#8B7878" stroke-width="2" mask="url(#path-1-outside-1_4449_13746)"/>
<path d="M194.77 54.5836L194.08 43.5436L193.99 39.5836H198.01L197.92 43.5436L197.23 54.5836H194.77ZM196 62.2336C195.36 62.2336 194.82 62.0236 194.38 61.6036C193.96 61.1836 193.75 60.6336 193.75 59.9536C193.75 59.2736 193.97 58.7236 194.41 58.3036C194.85 57.8836 195.38 57.6736 196 57.6736C196.62 57.6736 197.15 57.8836 197.59 58.3036C198.03 58.7236 198.25 59.2736 198.25 59.9536C198.25 60.6336 198.03 61.1836 197.59 61.6036C197.15 62.0236 196.62 62.2336 196 62.2336Z" stroke="#8B7878" stroke-width="2" mask="url(#path-1-outside-1_4449_13746)"/>
<rect x="13" y="33" width="216" height="34" fill="white"/>
</svg>
